<?xml version="1.0" standalone="no"?>
<!DOCTYPE svg PUBLIC "-//W3C//DTD SVG 20010904//EN"
 "http://www.w3.org/TR/2001/REC-SVG-20010904/DTD/svg10.dtd">
<svg version="1.0" xmlns="http://www.w3.org/2000/svg"
 width="485.000000pt" height="346.000000pt" viewBox="0 0 585.000000 446.000000"
 preserveAspectRatio="xMidYMid meet">

<g transform="translate(0.000000,446.000000) scale(0.100000,-0.100000)"
fill="#000000" stroke="none">
<path d="M3621 3911 c-39 -21 -60 -54 -61 -94 0 -52 27 -85 111 -134 119 -69
143 -110 94 -158 -18 -19 -35 -25 -68 -25 -55 0 -92 27 -117 84 l-19 41 0 -74
c-1 -63 1 -72 13 -62 11 9 25 10 53 2 118 -33 213 11 213 99 0 55 -29 91 -109
135 -95 51 -121 76 -121 114 0 38 31 61 81 61 47 0 94 -38 106 -83 7 -29 8
-27 13 28 6 69 3 80 -15 65 -10 -8 -23 -7 -50 5 -48 19 -82 19 -124 -4z"/>
<path d="M1925 3911 c3 -6 14 -11 24 -11 10 0 25 -8 34 -18 14 -16 17 -44 17
-184 0 -177 -3 -198 -28 -198 -10 0 -12 -3 -7 -9 6 -4 35 -5 65 -1 30 4 45 8
32 9 -12 0 -25 7 -28 14 -2 7 -3 79 -2 160 l3 148 35 -44 c19 -25 82 -102 140
-173 l105 -128 5 206 c3 114 7 209 10 212 3 3 17 9 30 15 20 8 9 10 -50 10
-59 0 -70 -2 -50 -10 13 -6 28 -15 32 -22 10 -16 10 -287 1 -286 -5 0 -65 71
-134 157 l-126 157 -57 3 c-39 2 -56 0 -51 -7z"/>
<path d="M2471 3909 c35 -13 39 -37 39 -215 0 -159 -8 -194 -42 -194 -14 0
-18 -3 -12 -8 7 -4 82 -6 167 -4 l155 3 16 46 c21 62 21 63 -20 15 l-36 -42
-83 0 c-83 0 -83 0 -88 28 -3 15 -4 56 -3 92 l1 65 54 3 c75 4 98 -3 109 -35
9 -23 10 -15 11 47 0 53 -3 69 -9 53 -13 -33 -44 -44 -108 -41 l-57 3 0 85 0
85 65 3 c86 4 107 -3 131 -41 l20 -32 -3 45 -3 45 -165 2 c-117 1 -157 -1
-139 -8z"/>
<path d="M2901 3897 c16 -15 47 -87 93 -220 39 -108 73 -197 77 -197 4 0 27
57 51 126 24 69 48 125 53 125 5 0 28 -55 53 -123 46 -128 49 -134 57 -126 3
2 36 94 74 203 50 144 76 204 93 217 23 17 23 18 -42 17 -53 0 -61 -2 -43 -11
12 -6 24 -16 27 -23 4 -13 -80 -272 -93 -287 -7 -8 -101 256 -101 283 0 9 10
21 23 27 18 9 6 11 -61 11 -53 1 -81 -3 -77 -9 3 -5 12 -10 19 -10 13 0 36
-40 51 -88 6 -21 -17 -107 -53 -192 l-14 -35 -49 138 c-27 77 -49 147 -49 156
0 10 10 23 23 29 18 9 7 11 -57 11 l-79 1 24 -23z"/>
<path d="M5483 3825 c0 -22 2 -30 4 -17 2 12 2 30 0 40 -3 9 -5 -1 -4 -23z"/>
<path d="M800 3763 c0 -5 10 -19 21 -33 l20 -25 -16 33 c-15 30 -25 41 -25 25z"/>
<path d="M1212 3738 c7 -15 15 -23 17 -17 2 6 -4 18 -13 27 -15 15 -15 15 -4
-10z"/>
<path d="M891 3734 c0 -11 3 -14 6 -6 3 7 2 16 -1 19 -3 4 -6 -2 -5 -13z"/>
<path d="M1091 3734 c0 -11 3 -14 6 -6 3 7 2 16 -1 19 -3 4 -6 -2 -5 -13z"/>
<path d="M1156 3727 c3 -10 9 -15 12 -12 3 3 0 11 -7 18 -10 9 -11 8 -5 -6z"/>
<path d="M1005 3720 c3 -5 8 -10 11 -10 2 0 4 5 4 10 0 6 -5 10 -11 10 -5 0
-7 -4 -4 -10z"/>
<path d="M5466 3588 c-13 -264 -56 -932 -67 -1028 -14 -124 -24 -760 -13 -760
5 0 10 71 12 158 5 293 68 1518 87 1715 4 32 2 57 -3 57 -5 0 -13 -64 -16
-142z"/>
<path d="M4480 3710 c1 -17 28 -56 34 -49 3 3 -4 18 -14 34 -11 17 -20 23 -20
15z"/>
<path d="M4748 3713 c6 -2 18 -2 25 0 6 3 1 5 -13 5 -14 0 -19 -2 -12 -5z"/>
<path d="M4878 3713 c6 -2 18 -2 25 0 6 3 1 5 -13 5 -14 0 -19 -2 -12 -5z"/>
<path d="M4828 3690 c-7 -24 -3 -38 8 -28 3 4 4 17 2 30 l-3 23 -7 -25z"/>
<path d="M4635 3680 c3 -5 8 -10 11 -10 2 0 4 5 4 10 0 6 -5 10 -11 10 -5 0
-7 -4 -4 -10z"/>
<path d="M4690 3670 c-12 -8 -10 -10 8 -10 13 0 20 4 17 10 -7 12 -6 12 -25 0z"/>
<path d="M1321 3624 c0 -11 3 -14 6 -6 3 7 2 16 -1 19 -3 4 -6 -2 -5 -13z"/>
<path d="M1351 3624 c0 -11 3 -14 6 -6 3 7 2 16 -1 19 -3 4 -6 -2 -5 -13z"/>
<path d="M5700 3603 c-3 -23 -2 -39 3 -34 5 5 7 24 5 42 -3 33 -4 33 -8 -8z"/>
<path d="M5682 3479 c-1 -9 -5 -32 -8 -50 -5 -26 -4 -31 5 -23 7 7 11 28 8 50
-2 22 -4 32 -5 23z"/>
<path d="M4822 3310 c0 -19 2 -27 5 -17 2 9 2 25 0 35 -3 9 -5 1 -5 -18z"/>
<path d="M4931 3324 c0 -11 3 -14 6 -6 3 7 2 16 -1 19 -3 4 -6 -2 -5 -13z"/>
<path d="M5662 3310 c0 -19 2 -27 5 -17 2 9 2 25 0 35 -3 9 -5 1 -5 -18z"/>
<path d="M1221 3314 c0 -11 3 -14 6 -6 3 7 2 16 -1 19 -3 4 -6 -2 -5 -13z"/>
<path d="M1301 3314 c0 -11 3 -14 6 -6 3 7 2 16 -1 19 -3 4 -6 -2 -5 -13z"/>
<path d="M3241 3304 c0 -11 3 -14 6 -6 3 7 2 16 -1 19 -3 4 -6 -2 -5 -13z"/>
<path d="M5649 3230 c-7 -35 -4 -48 7 -38 3 4 4 21 2 40 l-3 33 -6 -35z"/>
<path d="M1035 3240 c-187 -3 674 -6 1914 -8 1240 -1 2252 0 2249 3 -7 8
-3725 12 -4163 5z"/>
<path d="M5642 3155 c0 -16 2 -22 5 -12 2 9 2 23 0 30 -3 6 -5 -1 -5 -18z"/>
<path d="M5626 3059 c-9 -80 -2 -86 11 -9 5 34 7 63 3 65 -4 3 -11 -23 -14
-56z"/>
<path d="M5607 2926 c-4 -32 -5 -61 -3 -63 7 -7 19 82 14 103 -2 11 -7 -8 -11
-40z"/>
<path d="M5586 2768 c-4 -29 -9 -69 -11 -88 -4 -31 -4 -32 4 -8 11 32 25 148
18 148 -2 0 -7 -24 -11 -52z"/>
<path d="M5562 2590 c-1 -19 -5 -46 -7 -60 l-6 -25 11 25 c6 13 9 40 7 60 l-4
35 -1 -35z"/>
<path d="M5541 2425 c0 -11 -4 -31 -7 -45 -5 -19 -4 -22 5 -14 7 6 11 26 8 45
-2 19 -5 25 -6 14z"/>
<path d="M5516 2247 c-4 -27 -5 -51 -2 -54 7 -7 19 61 14 84 -2 10 -8 -4 -12
-30z"/>
<path d="M5500 2155 c0 -14 2 -25 4 -25 2 0 6 11 8 25 3 14 1 25 -3 25 -5 0
-9 -11 -9 -25z"/>
<path d="M5486 2021 c-4 -29 -5 -55 -2 -58 6 -7 19 83 14 99 -3 7 -8 -11 -12
-41z"/>
<path d="M5466 1887 c-4 -32 -5 -61 -3 -64 8 -7 20 81 15 103 -2 11 -8 -7 -12
-39z"/>
<path d="M5451 1769 c0 -15 -3 -42 -6 -60 l-5 -34 11 34 c5 18 8 45 6 60 l-4
26 -2 -26z"/>
<path d="M5432 1625 c0 -16 2 -22 5 -12 2 9 2 23 0 30 -3 6 -5 -1 -5 -18z"/>
<path d="M5411 1510 c-27 -167 -30 -186 -30 -264 -1 -44 1 -77 3 -75 5 4 8 34
21 169 3 36 10 94 16 130 6 36 9 79 8 95 -3 20 -9 1 -18 -55z"/>
<path d="M5381 874 c0 -11 3 -14 6 -6 3 7 2 16 -1 19 -3 4 -6 -2 -5 -13z"/>
<path d="M450 786 c0 -37 -1 -38 -30 -34 -38 6 -25 -9 18 -21 l31 -9 -6 46
c-7 59 -13 66 -13 18z"/>
<path d="M5378 750 c-3 -17 -1 -33 4 -36 4 -3 8 11 8 30 0 44 -6 47 -12 6z"/>
<path d="M485 681 c11 -4 178 -8 371 -9 328 0 703 -8 874 -18 41 -2 136 -6
210 -9 74 -3 182 -9 240 -14 58 -5 108 -7 112 -5 6 4 533 -31 613 -41 22 -2
91 -9 153 -15 62 -6 132 -14 155 -19 22 -6 44 -8 48 -5 4 2 27 0 51 -5 24 -5
72 -12 107 -15 35 -4 67 -8 71 -11 4 -2 34 -7 66 -10 33 -3 91 -10 129 -16 39
-6 88 -12 110 -15 22 -2 49 -6 60 -9 11 -2 47 -7 80 -10 33 -3 75 -11 93 -16
18 -6 43 -8 55 -5 12 3 39 1 62 -4 54 -13 193 -32 330 -46 28 -2 59 -7 70 -11
20 -6 50 -10 270 -38 66 -9 154 -20 195 -26 41 -6 102 -13 134 -15 33 -2 64
-8 70 -14 16 -16 46 -12 47 8 1 9 3 37 5 62 1 25 8 58 14 74 6 16 15 70 20
121 12 113 16 125 45 125 13 0 27 5 30 10 4 7 -816 10 -2452 9 -1352 0 -2449
-4 -2438 -8z m4125 -58 c0 9 5 17 10 17 6 0 10 -6 10 -14 0 -10 18 -14 74 -14
69 0 75 1 79 21 4 19 4 19 6 -4 1 -21 6 -25 31 -25 17 0 30 3 30 7 0 4 7 14
15 22 11 12 54 15 221 15 l207 1 -6 -72 c-4 -40 -7 -78 -7 -84 0 -16 -123 -17
-320 -4 -74 5 -187 12 -250 16 -63 3 -131 8 -150 10 -19 2 -93 7 -165 10 -116
5 -296 16 -500 30 -132 9 -230 14 -380 21 -82 4 -159 8 -170 9 -11 1 -40 3
-64 4 -35 1 -41 4 -32 14 6 8 7 18 3 23 -4 4 2 2 12 -6 16 -13 20 -13 24 -1 3
8 7 9 11 3 8 -13 51 -25 51 -14 0 5 15 7 33 5 17 -2 26 0 20 3 -20 9 -15 24 7
24 13 0 20 -7 20 -20 0 -26 8 -25 31 2 l19 21 0 -21 c0 -17 6 -22 28 -23 49
-1 193 -9 205 -12 7 -1 13 10 15 26 l3 27 267 0 c147 0 284 -4 304 -9 20 -5
39 -6 42 -4 3 3 24 7 46 8 33 3 40 0 36 -11 -6 -15 6 -19 18 -7 4 4 27 6 51 4
25 -1 45 2 45 8 0 19 35 17 52 -3 16 -19 18 -19 18 -3z m230 10 c0 -10 -4 -14
-8 -8 -4 6 -11 13 -16 18 -5 4 -2 7 7 7 10 0 17 -8 17 -17z m-2223 1 c-3 -3
-12 -4 -19 -1 -8 3 -5 6 6 6 11 1 17 -2 13 -5z m303 -5 c0 -8 6 -7 17 2 14 12
16 12 11 -1 -5 -16 -14 -16 -203 -11 -118 3 -64 19 68 20 73 1 107 -3 107 -10z
m240 -3 c0 -17 45 -27 59 -13 8 8 11 6 11 -7 0 -16 -7 -18 -62 -12 -35 3 -93
7 -130 8 -45 1 -68 5 -68 13 0 8 25 11 85 9 48 -1 85 1 85 7 0 5 5 9 10 9 6 0
10 -6 10 -14z m483 7 c-7 -2 -21 -2 -30 0 -10 3 -4 5 12 5 17 0 24 -2 18 -5z
m54 1 c-3 -3 -12 -4 -19 -1 -8 3 -5 6 6 6 11 1 17 -2 13 -5z m69 -114 c50 -5
160 -12 245 -15 228 -8 755 -40 840 -51 25 -3 61 -7 80 -9 19 -2 58 -7 87 -11
35 -4 56 -3 60 4 5 6 38 8 95 5 l89 -6 -7 -55 c-12 -94 1 -88 -141 -68 -54 8
-119 18 -144 21 -25 3 -103 15 -175 25 -71 10 -152 21 -180 24 -158 19 -257
38 -248 46 4 4 29 5 55 1 47 -8 58 -6 58 11 0 13 -40 25 -108 32 -57 6 -62 4
-62 -14 0 -11 7 -20 15 -20 8 0 15 -4 15 -8 0 -9 -157 7 -320 31 -58 9 -161
24 -230 33 -69 9 -143 20 -165 24 l-40 8 45 1 c25 0 86 -4 136 -9z"/>
<path d="M4884 625 c-4 -9 -5 -18 -2 -20 2 -2 52 -7 111 -10 99 -6 107 -5 107
12 0 15 -2 16 -10 3 -7 -11 -10 -12 -10 -1 0 9 -12 12 -44 10 -24 -2 -42 0
-39 4 3 5 -15 7 -39 6 -24 -2 -49 1 -56 5 -7 4 -15 1 -18 -9z"/>
<path d="M3750 606 c0 -9 3 -16 8 -17 4 0 18 -2 31 -5 14 -2 28 1 33 8 6 10 8
10 8 1 0 -7 9 -13 21 -13 14 0 19 5 17 18 -5 24 -118 32 -118 8z"/>
<path d="M3880 596 c0 -19 4 -24 15 -19 18 6 16 34 -2 41 -8 2 -13 -6 -13 -22z"/>
<path d="M4541 571 c-30 -23 -20 -41 25 -41 30 0 34 3 34 25 0 28 -19 35 -21
8 -1 -14 -3 -12 -7 4 -7 22 -8 22 -31 4z"/>
<path d="M4330 566 c0 -9 8 -16 19 -16 11 0 22 -6 24 -12 4 -10 7 -10 15 0 5
7 16 10 24 7 11 -4 18 0 21 12 4 16 5 16 6 1 1 -13 10 -18 31 -18 22 0 30 5
30 18 0 15 -12 17 -85 20 -72 3 -85 1 -85 -12z"/>
<path d="M4614 559 c-15 -25 51 -39 68 -14 5 6 8 3 8 -6 0 -11 9 -16 25 -16
15 0 25 5 25 13 0 8 1 17 3 21 3 11 -122 12 -129 2z"/>
<path d="M4767 548 c-6 -22 -2 -25 47 -29 33 -4 39 -1 42 18 3 15 -1 20 -14
18 -9 -1 -21 1 -27 5 -18 13 -43 7 -48 -12z"/>
<path d="M4880 537 c0 -13 6 -17 23 -15 12 2 27 -4 34 -12 8 -10 12 -11 13 -3
0 7 7 10 15 7 9 -4 15 0 15 7 0 10 2 11 8 3 4 -7 18 -14 32 -15 21 -3 26 1 28
24 4 29 -6 35 -26 15 -7 -7 -12 -8 -12 -2 0 5 -29 9 -65 9 -56 0 -65 -2 -65
-18z"/>
<path d="M4498 443 c-15 -19 -2 -30 37 -31 30 -1 35 2 35 21 0 19 -5 23 -31
22 -17 0 -35 -5 -41 -12z"/>
<path d="M4592 424 c2 -14 12 -18 36 -18 17 1 32 -3 32 -7 0 -16 48 -9 54 7 4
9 5 18 4 19 -2 2 -32 6 -66 10 -59 7 -64 6 -60 -11z"/>
<path d="M4740 405 c0 -21 5 -25 30 -26 17 -1 36 -2 43 -3 6 -1 12 8 12 19 0
13 -6 19 -17 17 -9 -1 -19 2 -23 8 -3 5 -15 10 -26 10 -14 0 -19 -7 -19 -25z"/>
<path d="M4852 391 c2 -9 13 -16 26 -15 12 0 22 -3 22 -8 0 -13 48 -9 53 5 4
8 6 7 6 -3 1 -10 12 -17 31 -18 25 -2 30 1 30 21 0 32 -10 40 -26 19 -11 -14
-13 -14 -14 -2 0 12 -14 15 -65 16 -54 0 -65 -3 -63 -15z"/>
</g>
</svg>
